{
    "asset" : {
        "generator" : "Khronos glTF Blender I/O v1.4.40",
        "version" : "2.0"
    },
    "scene" : 0,
    "scenes" : [
        {
            "name" : "Scene",
            "nodes" : [
                0,
                1,
                2
            ]
        }
    ],
    "nodes" : [
        {
            "name" : "Light",
            "rotation" : [
                0.16907575726509094,
                0.7558803558349609,
                -0.27217137813568115,
                0.570947527885437
            ],
            "translation" : [
                4.076245307922363,
                5.903861999511719,
                -1.0054539442062378
            ]
        },
        {
            "name" : "Camera",
            "rotation" : [
                0.483536034822464,
                0.33687159419059753,
                -0.20870360732078552,
                0.7804827094078064
            ],
            "translation" : [
                7.358891487121582,
                4.958309173583984,
                6.925790786743164
            ]
        },
        {
            "mesh" : 0,
            "name" : "boy",
            "rotation" : [
                0.7071068286895752,
                0,
                0,
                0.7071068286895752
            ]
        }
    ],
    "materials" : [
        {
            "alphaMode" : "BLEND",
            "doubleSided" : true,
            "name" : "lambert5SG",
            "pbrMetallicRoughness" : {
                "baseColorFactor" : [
                    0,
                    1,
                    0,
                    1
                ],
                "metallicFactor" : 0
            }
        },
        {
            "alphaMode" : "BLEND",
            "doubleSided" : true,
            "name" : "phongE1SG",
            "pbrMetallicRoughness" : {
                "baseColorFactor" : [
                    0.33000001311302185,
                    0.14000000059604645,
                    0.009999999776482582,
                    1
                ],
                "metallicFactor" : 0
            }
        },
        {
            "alphaMode" : "BLEND",
            "doubleSided" : true,
            "name" : "lambert3SG",
            "pbrMetallicRoughness" : {
                "baseColorFactor" : [
                    1,
                    0.17000000178813934,
                    0,
                    1
                ],
                "metallicFactor" : 0
            }
        },
        {
            "alphaMode" : "BLEND",
            "doubleSided" : true,
            "name" : "lambert2SG",
            "pbrMetallicRoughness" : {
                "baseColorFactor" : [
                    0,
                    0,
                    0,
                    1
                ],
                "metallicFactor" : 0
            }
        },
        {
            "alphaMode" : "BLEND",
            "doubleSided" : true,
            "name" : "lambert4SG",
            "pbrMetallicRoughness" : {
                "baseColorFactor" : [
                    1,
                    0.8799999952316284,
                    0.6600000262260437,
                    1
                ],
                "metallicFactor" : 0
            }
        },
        {
            "alphaMode" : "BLEND",
            "doubleSided" : true,
            "name" : "Boy_tongue_plySG1",
            "pbrMetallicRoughness" : {
                "baseColorFactor" : [
                    0.7699999809265137,
                    0.1899999976158142,
                    0.20000000298023224,
                    1
                ],
                "metallicFactor" : 0
            }
        },
        {
            "alphaMode" : "BLEND",
            "doubleSided" : true,
            "name" : "Boy_eyeSpecLft_plySG1",
            "pbrMetallicRoughness" : {
                "metallicFactor" : 0
            }
        },
        {
            "alphaMode" : "BLEND",
            "doubleSided" : true,
            "name" : "Boy_irisLft_plySG1",
            "pbrMetallicRoughness" : {
                "baseColorFactor" : [
                    0.15000000596046448,
                    0.20999999344348907,
                    0.11999999731779099,
                    1
                ],
                "metallicFactor" : 0
            }
        },
        {
            "alphaMode" : "BLEND",
            "doubleSided" : true,
            "name" : "Boy_retinaLft_plySG1",
            "pbrMetallicRoughness" : {
                "baseColorFactor" : [
                    0.23999999463558197,
                    0.27000001072883606,
                    0.25,
                    1
                ],
                "metallicFactor" : 0
            }
        },
        {
            "alphaMode" : "BLEND",
            "doubleSided" : true,
            "name" : "Boy_eyeBallLft_plySG1",
            "pbrMetallicRoughness" : {
                "baseColorFactor" : [
                    0.9399999976158142,
                    0.9399999976158142,
                    0.9399999976158142,
                    1
                ],
                "metallicFactor" : 0
            }
        }
    ],
    "meshes" : [
        {
            "name" : "boy",
            "primitives" : [
                {
                    "attributes" : {
                        "POSITION" : 0,
                        "NORMAL" : 1,
                        "TEXCOORD_0" : 2
                    },
                    "indices" : 3,
                    "material" : 0
                },
                {
                    "attributes" : {
                        "POSITION" : 4,
                        "NORMAL" : 5,
                        "TEXCOORD_0" : 6
                    },
                    "indices" : 7,
                    "material" : 1
                },
                {
                    "attributes" : {
                        "POSITION" : 8,
                        "NORMAL" : 9,
                        "TEXCOORD_0" : 10
                    },
                    "indices" : 11,
                    "material" : 2
                },
                {
                    "attributes" : {
                        "POSITION" : 12,
                        "NORMAL" : 13,
                        "TEXCOORD_0" : 14
                    },
                    "indices" : 15,
                    "material" : 3
                },
                {
                    "attributes" : {
                        "POSITION" : 16,
                        "NORMAL" : 17,
                        "TEXCOORD_0" : 18
                    },
                    "indices" : 19,
                    "material" : 4
                },
                {
                    "attributes" : {
                        "POSITION" : 20,
                        "NORMAL" : 21,
                        "TEXCOORD_0" : 22
                    },
                    "indices" : 23,
                    "material" : 5
                },
                {
                    "attributes" : {
                        "POSITION" : 24,
                        "NORMAL" : 25,
                        "TEXCOORD_0" : 26
                    },
                    "indices" : 27,
                    "material" : 6
                },
                {
                    "attributes" : {
                        "POSITION" : 28,
                        "NORMAL" : 29,
                        "TEXCOORD_0" : 30
                    },
                    "indices" : 31,
                    "material" : 7
                },
                {
                    "attributes" : {
                        "POSITION" : 32,
                        "NORMAL" : 33,
                        "TEXCOORD_0" : 34
                    },
                    "indices" : 35,
                    "material" : 8
                },
                {
                    "attributes" : {
                        "POSITION" : 36,
                        "NORMAL" : 37,
                        "TEXCOORD_0" : 38
                    },
                    "indices" : 39,
                    "material" : 9
                }
            ]
        }
    ],
    "accessors" : [
        {
            "bufferView" : 0,
            "componentType" : 5126,
            "count" : 968,
            "max" : [
                1.554291009902954,
                1.1961740255355835,
                -8.541848182678223
            ],
            "min" : [
                -1.554291009902954,
                -0.9087280035018921,
                -12.735650062561035
            ],
            "type" : "VEC3"
        },
        {
            "bufferView" : 1,
            "componentType" : 5126,
            "count" : 968,
            "type" : "VEC3"
        },
        {
            "bufferView" : 2,
            "componentType" : 5126,
            "count" : 968,
            "type" : "VEC2"
        },
        {
            "bufferView" : 3,
            "componentType" : 5123,
            "count" : 4944,
            "type" : "SCALAR"
        },
        {
            "bufferView" : 4,
            "componentType" : 5126,
            "count" : 1452,
            "max" : [
                1.163756012916565,
                1.5387489795684814,
                -0.007826999761164188
            ],
            "min" : [
                -1.163756012916565,
                -0.8667489886283875,
                -2.4084091186523438
            ],
            "type" : "VEC3"
        },
        {
            "bufferView" : 5,
            "componentType" : 5126,
            "count" : 1452,
            "type" : "VEC3"
        },
        {
            "bufferView" : 6,
            "componentType" : 5126,
            "count" : 1452,
            "type" : "VEC2"
        },
        {
            "bufferView" : 7,
            "componentType" : 5123,
            "count" : 6816,
            "type" : "SCALAR"
        },
        {
            "bufferView" : 8,
            "componentType" : 5126,
            "count" : 588,
            "max" : [
                1.3794130086898804,
                0.8565149903297424,
                -1.8123329877853394
            ],
            "min" : [
                -1.3794130086898804,
                -1.1047379970550537,
                -8.812207221984863
            ],
            "type" : "VEC3"
        },
        {
            "bufferView" : 9,
            "componentType" : 5126,
            "count" : 588,
            "type" : "VEC3"
        },
        {
            "bufferView" : 10,
            "componentType" : 5126,
            "count" : 588,
            "type" : "VEC2"
        },
        {
            "bufferView" : 11,
            "componentType" : 5123,
            "count" : 2784,
            "type" : "SCALAR"
        },
        {
            "bufferView" : 12,
            "componentType" : 5126,
            "count" : 789,
            "max" : [
                0.9753559827804565,
                1.517406940460205,
                -12.732465744018555
            ],
            "min" : [
                -1.4799139499664307,
                -0.8794940114021301,
                -15.601523399353027
            ],
            "type" : "VEC3"
        },
        {
            "bufferView" : 13,
            "componentType" : 5126,
            "count" : 789,
            "type" : "VEC3"
        },
        {
            "bufferView" : 14,
            "componentType" : 5126,
            "count" : 789,
            "type" : "VEC2"
        },
        {
            "bufferView" : 15,
            "componentType" : 5123,
            "count" : 3495,
            "type" : "SCALAR"
        },
        {
            "bufferView" : 16,
            "componentType" : 5126,
            "count" : 6685,
            "max" : [
                7.640850067138672,
                1.4060430526733398,
                -8.832073211669922
            ],
            "min" : [
                -7.64085578918457,
                -0.7141559720039368,
                -14.959216117858887
            ],
            "type" : "VEC3"
        },
        {
            "bufferView" : 17,
            "componentType" : 5126,
            "count" : 6685,
            "type" : "VEC3"
        },
        {
            "bufferView" : 18,
            "componentType" : 5126,
            "count" : 6685,
            "type" : "VEC2"
        },
        {
            "bufferView" : 19,
            "componentType" : 5123,
            "count" : 34998,
            "type" : "SCALAR"
        },
        {
            "bufferView" : 20,
            "componentType" : 5126,
            "count" : 146,
            "max" : [
                0.1422320008277893,
                1.019906997680664,
                -13.129769325256348
            ],
            "min" : [
                -0.1422320008277893,
                0.5821520090103149,
                -13.182790756225586
            ],
            "type" : "VEC3"
        },
        {
            "bufferView" : 21,
            "componentType" : 5126,
            "count" : 146,
            "type" : "VEC3"
        },
        {
            "bufferView" : 22,
            "componentType" : 5126,
            "count" : 146,
            "type" : "VEC2"
        },
        {
            "bufferView" : 23,
            "componentType" : 5123,
            "count" : 864,
            "type" : "SCALAR"
        },
        {
            "bufferView" : 24,
            "componentType" : 5126,
            "count" : 3124,
            "max" : [
                0.33548998832702637,
                1.0026140213012695,
                -13.826891899108887
            ],
            "min" : [
                -0.33548998832702637,
                0.9899640083312988,
                -13.870546340942383
            ],
            "type" : "VEC3"
        },
        {
            "bufferView" : 25,
            "componentType" : 5126,
            "count" : 3124,
            "type" : "VEC3"
        },
        {
            "bufferView" : 26,
            "componentType" : 5126,
            "count" : 3124,
            "type" : "VEC2"
        },
        {
            "bufferView" : 27,
            "componentType" : 5123,
            "count" : 18720,
            "type" : "SCALAR"
        },
        {
            "bufferView" : 28,
            "componentType" : 5126,
            "count" : 242,
            "max" : [
                0.3322409987449646,
                0.9975299835205078,
                -13.762699127197266
            ],
            "min" : [
                -0.3322409987449646,
                0.981909990310669,
                -13.851346015930176
            ],
            "type" : "VEC3"
        },
        {
            "bufferView" : 29,
            "componentType" : 5126,
            "count" : 242,
            "type" : "VEC3"
        },
        {
            "bufferView" : 30,
            "componentType" : 5126,
            "count" : 242,
            "type" : "VEC2"
        },
        {
            "bufferView" : 31,
            "componentType" : 5123,
            "count" : 1320,
            "type" : "SCALAR"
        },
        {
            "bufferView" : 32,
            "componentType" : 5126,
            "count" : 442,
            "max" : [
                0.37577900290489197,
                1.0149929523468018,
                -13.720199584960938
            ],
            "min" : [
                -0.37577900290489197,
                0.9739369750022888,
                -13.893844604492188
            ],
            "type" : "VEC3"
        },
        {
            "bufferView" : 33,
            "componentType" : 5126,
            "count" : 442,
            "type" : "VEC3"
        },
        {
            "bufferView" : 34,
            "componentType" : 5126,
            "count" : 442,
            "type" : "VEC2"
        },
        {
            "bufferView" : 35,
            "componentType" : 5123,
            "count" : 2520,
            "type" : "SCALAR"
        },
        {
            "bufferView" : 36,
            "componentType" : 5126,
            "count" : 964,
            "max" : [
                0.5162720084190369,
                1.014140009880066,
                -13.54792594909668
            ],
            "min" : [
                -0.5162720084190369,
                0.5001940131187439,
                -14.066119194030762
            ],
            "type" : "VEC3"
        },
        {
            "bufferView" : 37,
            "componentType" : 5126,
            "count" : 964,
            "type" : "VEC3"
        },
        {
            "bufferView" : 38,
            "componentType" : 5126,
            "count" : 964,
            "type" : "VEC2"
        },
        {
            "bufferView" : 39,
            "componentType" : 5123,
            "count" : 5760,
            "type" : "SCALAR"
        }
    ],
    "bufferViews" : [
        {
            "buffer" : 0,
            "byteLength" : 11616,
            "byteOffset" : 0
        },
        {
            "buffer" : 0,
            "byteLength" : 11616,
            "byteOffset" : 11616
        },
        {
            "buffer" : 0,
            "byteLength" : 7744,
            "byteOffset" : 23232
        },
        {
            "buffer" : 0,
            "byteLength" : 9888,
            "byteOffset" : 30976
        },
        {
            "buffer" : 0,
            "byteLength" : 17424,
            "byteOffset" : 40864
        },
        {
            "buffer" : 0,
            "byteLength" : 17424,
            "byteOffset" : 58288
        },
        {
            "buffer" : 0,
            "byteLength" : 11616,
            "byteOffset" : 75712
        },
        {
            "buffer" : 0,
            "byteLength" : 13632,
            "byteOffset" : 87328
        },
        {
            "buffer" : 0,
            "byteLength" : 7056,
            "byteOffset" : 100960
        },
        {
            "buffer" : 0,
            "byteLength" : 7056,
            "byteOffset" : 108016
        },
        {
            "buffer" : 0,
            "byteLength" : 4704,
            "byteOffset" : 115072
        },
        {
            "buffer" : 0,
            "byteLength" : 5568,
            "byteOffset" : 119776
        },
        {
            "buffer" : 0,
            "byteLength" : 9468,
            "byteOffset" : 125344
        },
        {
            "buffer" : 0,
            "byteLength" : 9468,
            "byteOffset" : 134812
        },
        {
            "buffer" : 0,
            "byteLength" : 6312,
            "byteOffset" : 144280
        },
        {
            "buffer" : 0,
            "byteLength" : 6990,
            "byteOffset" : 150592
        },
        {
            "buffer" : 0,
            "byteLength" : 80220,
            "byteOffset" : 157584
        },
        {
            "buffer" : 0,
            "byteLength" : 80220,
            "byteOffset" : 237804
        },
        {
            "buffer" : 0,
            "byteLength" : 53480,
            "byteOffset" : 318024
        },
        {
            "buffer" : 0,
            "byteLength" : 69996,
            "byteOffset" : 371504
        },
        {
            "buffer" : 0,
            "byteLength" : 1752,
            "byteOffset" : 441500
        },
        {
            "buffer" : 0,
            "byteLength" : 1752,
            "byteOffset" : 443252
        },
        {
            "buffer" : 0,
            "byteLength" : 1168,
            "byteOffset" : 445004
        },
        {
            "buffer" : 0,
            "byteLength" : 1728,
            "byteOffset" : 446172
        },
        {
            "buffer" : 0,
            "byteLength" : 37488,
            "byteOffset" : 447900
        },
        {
            "buffer" : 0,
            "byteLength" : 37488,
            "byteOffset" : 485388
        },
        {
            "buffer" : 0,
            "byteLength" : 24992,
            "byteOffset" : 522876
        },
        {
            "buffer" : 0,
            "byteLength" : 37440,
            "byteOffset" : 547868
        },
        {
            "buffer" : 0,
            "byteLength" : 2904,
            "byteOffset" : 585308
        },
        {
            "buffer" : 0,
            "byteLength" : 2904,
            "byteOffset" : 588212
        },
        {
            "buffer" : 0,
            "byteLength" : 1936,
            "byteOffset" : 591116
        },
        {
            "buffer" : 0,
            "byteLength" : 2640,
            "byteOffset" : 593052
        },
        {
            "buffer" : 0,
            "byteLength" : 5304,
            "byteOffset" : 595692
        },
        {
            "buffer" : 0,
            "byteLength" : 5304,
            "byteOffset" : 600996
        },
        {
            "buffer" : 0,
            "byteLength" : 3536,
            "byteOffset" : 606300
        },
        {
            "buffer" : 0,
            "byteLength" : 5040,
            "byteOffset" : 609836
        },
        {
            "buffer" : 0,
            "byteLength" : 11568,
            "byteOffset" : 614876
        },
        {
            "buffer" : 0,
            "byteLength" : 11568,
            "byteOffset" : 626444
        },
        {
            "buffer" : 0,
            "byteLength" : 7712,
            "byteOffset" : 638012
        },
        {
            "buffer" : 0,
            "byteLength" : 11520,
            "byteOffset" : 645724
        }
    ],
    "buffers" : [
        {
            "byteLength" : 657244,
            "uri" : "data:application/octet-stream;base64,"
        }
    ]
}
